<svg width="120" height="42" viewBox="0 0 120 42" version="1.1" xmlns="http://www.w3.org/2000/svg" xmlns:xlink="http://www.w3.org/1999/xlink">
<title>Page 1 Copy 2</title>
<desc>Created using Figma</desc>
<g id="Canvas" transform="translate(-596 -762)">
<g id="Page 1 Copy 2">
<mask id="mask0_outline" mask-type="alpha">
<g id="Clip 2">
<use xlink:href="#path0_fill" transform="translate(596 762)" fill="#FFFFFF"/>
</g>
</mask>
<g id="Fill 1" mask="url(#mask0_outline)">
<use xlink:href="#path1_fill" transform="translate(596 762)" fill="#FEFEFE"/>
</g>
</g>
</g>
<defs>
<path id="path0_fill" fill-rule="evenodd" d="M 119.339 41.4763L 119.339 0L 0 0L 0 41.4763L 119.339 41.4763Z"/>
<path id="path1_fill" fill-rule="evenodd" d="M 107.294 10.7347C 106.492 10.7347 106.154 11.463 106.101 11.9902L 108.359 11.9902C 108.371 11.5155 108.158 10.7347 107.294 10.7347L 107.294 10.7347ZM 56.811 13.5518C 56.811 14.0588 57.1387 14.2913 57.5497 14.2913C 58.0777 14.2913 58.4467 13.953 58.5735 13.584C 58.605 13.4888 58.605 13.3935 58.605 13.2983L 58.605 12.5925C 57.687 12.582 56.811 12.771 56.811 13.5518L 56.811 13.5518ZM 81.7882 10.7872C 80.8702 10.7872 80.5005 11.6842 80.5005 12.5385C 80.5005 13.5315 80.9962 14.2807 81.7777 14.2807C 82.5165 14.2807 83.0332 13.563 83.0332 12.5182C 83.0332 11.7165 82.6747 10.7872 81.7882 10.7872L 81.7882 10.7872ZM 73.068 10.7347C 72.2662 10.7347 71.9287 11.463 71.8755 11.9902L 74.1337 11.9902C 74.1442 11.5155 73.9335 10.7347 73.068 10.7347L 73.068 10.7347ZM 63.7252 10.8608C 63.198 10.8608 62.7127 11.2418 62.5755 11.811C 62.5537 11.9063 62.532 12.0218 62.532 12.1485L 62.532 12.9818C 62.532 13.0875 62.5432 13.1933 62.5642 13.2885C 62.7015 13.815 63.1552 14.196 63.7147 14.196C 64.5277 14.196 65.0235 13.5518 65.0235 12.5078C 65.0235 11.6003 64.59 10.8608 63.7252 10.8608L 63.7252 10.8608ZM 109.551 27.6443L 102.898 27.6443C 102.925 28.6283 103.246 29.3783 103.864 29.898C 104.424 30.3645 105.148 30.597 106.039 30.597C 107.026 30.597 107.92 30.4403 108.728 30.1215L 109.078 31.6628C 108.136 32.0768 107.019 32.2778 105.729 32.2778C 104.185 32.2778 102.97 31.8248 102.088 30.915C 101.206 30.0053 100.761 28.7835 100.761 27.252C 100.761 25.7445 101.174 24.495 101.993 23.4915C 102.859 22.425 104.023 21.8925 105.484 21.8925C 106.926 21.8925 108.012 22.425 108.748 23.4915C 109.336 24.3428 109.631 25.3905 109.631 26.6363C 109.631 27.0308 109.603 27.366 109.551 27.6443L 109.551 27.6443ZM 100.4 12.0218L 100.4 15.1028L 99.1027 15.1028L 99.1027 7.61176L 100.4 7.61176L 100.4 10.6605L 100.421 10.6605C 100.579 10.4183 100.801 10.218 101.065 10.0808C 101.329 9.93226 101.635 9.84826 101.962 9.84826C 102.838 9.84826 103.756 10.4288 103.756 12.075L 103.756 15.1028L 102.458 15.1028L 102.458 12.2123C 102.458 11.4728 102.184 10.9035 101.466 10.9035C 100.96 10.9035 100.6 11.2418 100.453 11.631C 100.411 11.748 100.4 11.8845 100.4 12.0218L 100.4 12.0218ZM 100.064 24.0667C 99.8453 24.0277 99.6105 24.0105 99.366 24.0105C 98.586 24.0105 97.9853 24.3052 97.5593 24.8917C 97.1888 25.413 97.005 26.061 97.005 26.8605L 97.005 32.0947L 94.788 32.0947L 94.788 25.2555C 94.788 24.1125 94.7685 23.0647 94.7288 22.1175L 96.6578 22.1175L 96.741 24.0277L 96.8018 24.0277C 97.0328 23.373 97.401 22.8442 97.9095 22.4497C 98.403 22.0905 98.9385 21.9172 99.513 21.9172C 99.7163 21.9172 99.903 21.9285 100.064 21.9547L 100.064 24.0667ZM 94.3725 9.96447L 95.1007 9.96447L 95.1007 9.00297L 96.378 8.64447L 96.378 9.96447L 97.6125 9.96447L 97.6125 10.935L 96.378 10.935L 96.378 13.2037C 96.378 13.8375 96.5467 14.154 97.0425 14.154C 97.275 14.154 97.4017 14.1427 97.5495 14.1007L 97.5705 15.0825C 97.38 15.156 97.032 15.2197 96.6315 15.2197C 96.1462 15.2197 95.7547 15.0615 95.5125 14.7975C 95.2275 14.502 95.1007 14.0272 95.1007 13.3515L 95.1007 10.935L 94.3725 10.935L 94.3725 9.96447ZM 92.082 30.8055C 91.1618 31.815 89.9438 32.3205 88.4288 32.3205C 86.9618 32.3205 85.791 31.836 84.9233 30.864C 84.0555 29.8943 83.622 28.6643 83.622 27.1883C 83.622 25.6433 84.069 24.3758 84.9653 23.3918C 85.8638 22.4033 87.0675 21.9165 88.587 21.9165C 90.057 21.9165 91.2323 22.398 92.1218 23.3745C 92.9678 24.3128 93.393 25.5345 93.393 27.0255C 93.393 28.563 92.958 29.8163 92.082 30.8055L 92.082 30.8055ZM 81.7357 15.2198C 80.2897 15.2198 79.1602 14.2268 79.1602 12.5708C 79.1602 10.8825 80.2687 9.84827 81.8197 9.84827C 83.3497 9.84827 84.3735 10.9253 84.3735 12.4868C 84.3735 14.3753 83.0437 15.2198 81.7357 15.2198L 81.7357 15.2198ZM 82.986 23.7788L 80.5388 23.7788L 80.5388 28.6283C 80.5388 29.859 80.973 30.4695 81.8363 30.4695C 82.233 30.4695 82.5585 30.4403 82.8203 30.3735L 82.8833 32.0528C 82.4445 32.217 81.8715 32.2995 81.159 32.2995C 80.2875 32.2995 79.5983 32.0363 79.1078 31.4993C 78.6105 30.9683 78.3653 30.0698 78.3653 28.8113L 78.3653 23.7788L 76.9088 23.7788L 76.9088 22.1175L 78.3653 22.1175L 78.3653 20.2913L 80.5388 19.6343L 80.5388 22.1175L 82.986 22.1175L 82.986 23.7788ZM 75.1702 31.0882C 74.2642 31.8967 73.0095 32.298 71.4 32.298C 69.9075 32.298 68.715 32.0092 67.8135 31.4377L 68.3287 29.5905C 69.3 30.162 70.3665 30.4522 71.5275 30.4522C 72.366 30.4522 73.014 30.2617 73.4797 29.8882C 73.9425 29.5132 74.1757 29.0107 74.1757 28.374C 74.1757 27.8197 73.9837 27.3472 73.6027 26.9625C 73.2157 26.5792 72.585 26.226 71.694 25.8952C 69.2745 24.9945 68.0617 23.673 68.0617 21.936C 68.0617 20.7997 68.4847 19.8667 69.3412 19.1415C 70.197 18.4177 71.3295 18.0547 72.741 18.0547C 73.9987 18.0547 75.0465 18.2752 75.8827 18.7102L 75.3232 20.517C 74.5432 20.094 73.6567 19.8795 72.6682 19.8795C 71.8867 19.8795 71.274 20.0782 70.833 20.4525C 70.4647 20.7997 70.2787 21.2175 70.2787 21.7087C 70.2787 22.2517 70.4917 22.7055 70.9147 23.0662C 71.2852 23.3932 71.9565 23.748 72.9247 24.1297C 74.1195 24.6052 74.9925 25.17 75.5557 25.815C 76.1152 26.4585 76.3972 27.2572 76.3972 28.2142C 76.3972 29.3917 75.9855 30.3525 75.1702 31.0882L 75.1702 31.0882ZM 64.0103 15.2198C 63.345 15.2198 62.754 14.967 62.385 14.3333L 62.364 14.3333L 62.301 15.1028L 61.1925 15.1028C 61.2143 14.7548 61.2353 14.1863 61.2353 13.6568L 61.2353 7.61176L 62.532 7.61176L 62.532 10.671L 62.5538 10.671C 62.8703 10.1753 63.4298 9.84826 64.2 9.84826C 65.4563 9.84826 66.3525 10.893 66.342 12.4545C 66.342 14.3018 65.1713 15.2198 64.0103 15.2198L 64.0103 15.2198ZM 62.4877 31.0103C 61.6612 31.8825 60.6382 32.3205 59.412 32.3205C 58.0912 32.3205 57.1425 31.8495 56.5657 30.9023L 56.5657 36.1418L 54.348 36.1418L 54.348 25.3965C 54.348 24.3293 54.3195 23.238 54.2662 22.1175L 56.2117 22.1175L 56.34 23.6978L 56.3775 23.6978C 57.1215 22.5113 58.2405 21.9165 59.7457 21.9165C 60.9232 21.9165 61.905 22.3778 62.6917 23.3115C 63.4807 24.24 63.873 25.4678 63.873 26.985C 63.873 28.6875 63.4125 30.0233 62.4877 31.0103L 62.4877 31.0103ZM 52.5367 15.1028L 53.8335 15.1028L 53.8335 7.61176L 52.5367 7.61176L 52.5367 15.1028ZM 51.5265 31.0103C 50.7022 31.8825 49.6747 32.3205 48.4515 32.3205C 47.127 32.3205 46.1797 31.8495 45.603 30.9023L 45.603 36.1418L 43.3875 36.1418L 43.3875 25.3965C 43.3875 24.3293 43.359 23.238 43.3027 22.1175L 45.2527 22.1175L 45.375 23.6978L 45.414 23.6978C 46.1565 22.5113 47.2777 21.9165 48.7845 21.9165C 49.962 21.9165 50.9407 22.3778 51.7327 23.3115C 52.5172 24.24 52.9117 25.4678 52.9117 26.985C 52.9117 28.6875 52.4512 30.0233 51.5265 31.0103L 51.5265 31.0103ZM 42.8453 13.689C 42.8453 12.402 43.9958 11.7368 45.8955 11.748L 45.8955 11.6633C 45.8955 11.3258 45.7575 10.7655 44.85 10.7655C 44.343 10.7655 43.8165 10.9253 43.4678 11.1465L 43.215 10.302C 43.5938 10.0695 44.259 9.84827 45.072 9.84827C 46.7175 9.84827 47.193 10.893 47.193 12.0218L 47.193 13.869C 47.193 14.3333 47.214 14.7863 47.2778 15.1028L 46.1055 15.1028L 46.011 14.5335L 45.9795 14.5335C 45.6735 14.9348 45.135 15.2198 44.46 15.2198C 43.4258 15.2198 42.8453 14.4698 42.8453 13.689L 42.8453 13.689ZM 40.1738 15.1027L 38.8965 15.1027L 36.9863 9.96448L 38.3903 9.96448L 39.2228 12.5707C 39.3713 13.0245 39.4763 13.4362 39.5715 13.8585L 39.6038 13.8585C 39.6983 13.4362 39.8145 13.0342 39.9518 12.5707L 40.7753 9.96448L 42.1365 9.96448L 40.1738 15.1027ZM 39.6698 32.0947L 38.3775 28.0335L 33.8805 28.0335L 32.6475 32.0947L 30.3503 32.0947L 34.8015 18.2587L 37.5555 18.2587L 42.0323 32.0947L 39.6698 32.0947ZM 24.003 31.575C 24.003 32.8283 22.9815 33.8438 21.729 33.8438L 11.9828 33.8438C 10.7288 33.8438 9.70728 32.8283 9.70728 31.575L 9.70728 9.91726C 9.70728 8.66401 10.7288 7.64551 11.9828 7.64551L 21.729 7.64551C 22.9815 7.64551 24.003 8.66401 24.003 9.91726L 24.003 31.575ZM 32.6468 7.99127L 34.3035 7.99127L 36.6143 15.1028L 35.211 15.1028L 34.5675 13.0875L 32.319 13.0875L 31.707 15.1028L 30.3668 15.1028L 32.6468 7.99127ZM 49.2007 15.1027L 50.4975 15.1027L 50.4975 9.96375L 49.2007 9.96375L 49.2007 15.1027ZM 49.8548 7.82178C 50.298 7.82178 50.5725 8.12853 50.583 8.52903C 50.583 8.90853 50.298 9.22578 49.8435 9.22578C 49.4108 9.22578 49.1265 8.90853 49.1265 8.52903C 49.1265 8.12853 49.422 7.82178 49.8548 7.82178L 49.8548 7.82178ZM 57.5287 10.7655C 57.0225 10.7655 56.4952 10.9253 56.1472 11.1465L 55.8937 10.302C 56.2732 10.0695 56.9377 9.84827 57.75 9.84827C 59.397 9.84827 59.8717 10.893 59.8717 12.0218L 59.8717 13.869C 59.8717 14.3333 59.8927 14.7863 59.9557 15.1028L 58.7842 15.1028L 58.6897 14.5335L 58.6582 14.5335C 58.3522 14.9348 57.8137 15.2198 57.1387 15.2198C 56.1037 15.2198 55.524 14.4698 55.524 13.689C 55.524 12.402 56.6737 11.7368 58.5735 11.748L 58.5735 11.6633C 58.5735 11.3258 58.4355 10.7655 57.5287 10.7655L 57.5287 10.7655ZM 67.8225 15.1028L 69.1193 15.1028L 69.1193 7.61176L 67.8225 7.61176L 67.8225 15.1028ZM 73.1422 9.84827C 74.8087 9.84827 75.3585 11.2193 75.3585 12.3488C 75.3585 12.5925 75.3375 12.7823 75.3157 12.8985L 71.8755 12.8985C 71.907 13.8263 72.6247 14.2268 73.4587 14.2268C 74.0595 14.2268 74.4817 14.133 74.883 13.9958L 75.0727 14.8815C 74.6295 15.0713 74.0182 15.2085 73.2787 15.2085C 71.6122 15.2085 70.6305 14.1863 70.6305 12.6135C 70.6305 11.1878 71.496 9.84827 73.1422 9.84827L 73.1422 9.84827ZM 86.772 9.96452L 86.835 10.7348L 86.8673 10.7348C 87.0983 10.3335 87.6578 9.84827 88.5128 9.84827C 89.4098 9.84827 90.339 10.4288 90.339 12.0533L 90.339 15.1028L 89.0408 15.1028L 89.0408 12.201C 89.0408 11.463 88.7663 10.9035 88.059 10.9035C 87.5423 10.9035 87.1838 11.2725 87.0458 11.6633C 87.003 11.769 86.9828 11.9273 86.9828 12.075L 86.9828 15.1028L 85.6845 15.1028L 85.6845 11.4953C 85.6845 10.9035 85.6635 10.4078 85.6425 9.96452L 86.772 9.96452ZM 107.368 9.84827C 109.034 9.84827 109.584 11.2193 109.584 12.3488C 109.584 12.5925 109.562 12.7823 109.541 12.8985L 106.101 12.8985C 106.133 13.8263 106.85 14.2268 107.684 14.2268C 108.285 14.2268 108.708 14.133 109.109 13.9958L 109.298 14.8815C 108.855 15.0713 108.244 15.2085 107.504 15.2085C 105.838 15.2085 104.856 14.1863 104.856 12.6135C 104.856 11.1878 105.721 9.84827 107.368 9.84827L 107.368 9.84827ZM 114.296 0L 5.043 0C 2.26275 0 0 2.262 0 5.04375L 0 36.4403C 0 39.2183 2.26275 41.4765 5.043 41.4765L 114.296 41.4765C 117.077 41.4765 119.34 39.2183 119.34 36.4403L 119.34 5.04375C 119.34 2.262 117.077 0 114.296 0L 114.296 0ZM 33.7973 10.3545C 33.6593 9.92176 33.5438 9.43726 33.438 9.02551L 33.4163 9.02551C 33.3113 9.43726 33.195 9.93226 33.0788 10.3545L 32.5305 12.1065L 34.356 12.1065L 33.7973 10.3545ZM 45.8955 13.584C 45.9262 13.4888 45.9262 13.3935 45.9262 13.2983L 45.9262 12.5925C 45.0082 12.582 44.133 12.771 44.133 13.5518C 44.133 14.0588 44.46 14.2913 44.8717 14.2913C 45.399 14.2913 45.768 13.953 45.8955 13.584L 45.8955 13.584ZM 105.32 23.43C 104.596 23.43 104.008 23.739 103.555 24.3375C 103.186 24.8145 102.965 25.3905 102.898 26.058L 107.517 26.058C 107.528 25.4032 107.388 24.8377 107.088 24.3555C 106.702 23.7427 106.113 23.43 105.32 23.43L 105.32 23.43ZM 36.1178 20.1068L 36.0788 20.1068C 35.9393 20.6955 35.7233 21.5633 35.4195 22.7145L 34.2698 26.328L 37.9845 26.328L 36.819 22.7145C 36.693 22.3433 36.4583 21.4733 36.1178 20.1068L 36.1178 20.1068ZM 59.028 23.676C 58.4782 23.676 57.9877 23.856 57.5407 24.219C 57.096 24.5865 56.8042 25.062 56.6662 25.6508C 56.598 25.926 56.5657 26.1503 56.5657 26.3288L 56.5657 27.99C 56.5657 28.7168 56.7847 29.3303 57.2317 29.8298C 57.6757 30.3248 58.2547 30.576 58.9635 30.576C 59.8027 30.576 60.4515 30.2565 60.9172 29.6115C 61.3837 28.9688 61.6177 28.1205 61.6177 27.063C 61.6177 26.094 61.3972 25.2923 60.9607 24.6645C 60.4777 24.0105 59.8342 23.676 59.028 23.676L 59.028 23.676ZM 88.5053 23.538C 87.6188 23.538 86.94 23.9325 86.4773 24.7245C 86.076 25.377 85.8795 26.1735 85.8795 27.1163C 85.8795 28.0335 86.076 28.8165 86.4773 29.4705C 86.952 30.2618 87.6225 30.6563 88.4895 30.6563C 89.3325 30.6563 89.9985 30.2565 90.4748 29.4458C 90.8888 28.7835 91.0943 27.99 91.0943 27.0773C 91.0943 26.1645 90.897 25.377 90.5018 24.7245C 90.03 23.9325 89.3693 23.538 88.5053 23.538L 88.5053 23.538ZM 48.063 23.676C 47.517 23.676 47.0235 23.856 46.5773 24.219C 46.131 24.5865 45.8415 25.062 45.7043 25.6508C 45.6368 25.926 45.603 26.1503 45.603 26.3288L 45.603 27.99C 45.603 28.7168 45.8213 29.3303 46.269 29.8298C 46.713 30.3248 47.292 30.576 48.0023 30.576C 48.8355 30.576 49.4903 30.2565 49.9545 29.6115C 50.4195 28.9688 50.6505 28.1205 50.6505 27.063C 50.6505 26.094 50.4338 25.2923 49.9958 24.6645C 49.5143 24.0105 48.8715 23.676 48.063 23.676L 48.063 23.676ZM 11.0895 29.277L 22.6215 29.277L 22.6215 12.222L 11.0895 12.222L 11.0895 29.277ZM 16.854 30.2835C 16.2075 30.2835 15.6802 30.813 15.6802 31.4618C 15.6802 32.109 16.2075 32.6363 16.854 32.6363C 17.5035 32.6363 18.0292 32.109 18.0292 31.4618C 18.0292 30.813 17.5035 30.2835 16.854 30.2835L 16.854 30.2835ZM 15.7245 10.4813L 17.9843 10.4813C 18.132 10.4813 18.2528 10.3598 18.2528 10.218C 18.2528 10.068 18.132 9.94727 17.9843 9.94727L 15.7245 9.94727C 15.5813 9.94727 15.4583 10.068 15.4583 10.218C 15.4583 10.3598 15.5813 10.4813 15.7245 10.4813L 15.7245 10.4813Z"/>
</defs>
</svg>
