<svg width="128" height="43" viewBox="0 0 128 43" version="1.1" xmlns="http://www.w3.org/2000/svg" xmlns:xlink="http://www.w3.org/1999/xlink">
<title>Page 1 Copy 3</title>
<desc>Created using Figma</desc>
<g id="Canvas" transform="translate(-737 -761)">
<g id="Page 1 Copy 3">
<g id="Fill 1">
<use xlink:href="#path0_fill" transform="translate(791.289 770.645)" fill="#FEFEFE"/>
</g>
<g id="Fill 3">
<use xlink:href="#path1_fill" transform="translate(797.101 770.664)" fill="#FEFEFE"/>
</g>
<g id="Fill 5">
<use xlink:href="#path2_fill" transform="translate(805.798 770.631)" fill="#FEFEFE"/>
</g>
<g id="Fill 7">
<use xlink:href="#path3_fill" transform="translate(802.309 770.623)" fill="#FEFEFE"/>
</g>
<g id="Fill 9">
<use xlink:href="#path4_fill" transform="translate(776.971 770.623)" fill="#FEFEFE"/>
</g>
<g id="Fill 11">
<use xlink:href="#path5_fill" transform="translate(787.98 770.634)" fill="#FEFEFE"/>
</g>
<g id="Fill 13">
<use xlink:href="#path6_fill" transform="translate(784.267 770.664)" fill="#FEFEFE"/>
</g>
<g id="Fill 15">
<use xlink:href="#path7_fill" transform="translate(813.456 770.645)" fill="#FEFEFE"/>
</g>
<g id="Fill 17">
<use xlink:href="#path8_fill" transform="translate(809.015 770.631)" fill="#FEFEFE"/>
</g>
<g id="Fill 19">
<use xlink:href="#path9_fill" transform="translate(799.65 783.213)" fill="#FEFEFE"/>
</g>
<g id="Fill 21">
<use xlink:href="#path9_fill" transform="translate(790.377 783.213)" fill="#FEFEFE"/>
</g>
<g id="Fill 23">
<use xlink:href="#path10_fill" transform="translate(834.49 779.642)" fill="#FEFEFE"/>
</g>
<g id="Fill 25">
<use xlink:href="#path11_fill" transform="translate(846.241 786.315)" fill="#FEFEFE"/>
</g>
<g id="Fill 27">
<use xlink:href="#path12_fill" transform="translate(821.594 783.213)" fill="#FEFEFE"/>
</g>
<g id="Fill 29">
<use xlink:href="#path13_fill" transform="translate(808.924 783.213)" fill="#FEFEFE"/>
</g>
<g id="Group 33">
<mask id="mask0_outline" mask-type="alpha">
<g id="Clip 32">
<use xlink:href="#path14_fill" transform="translate(737 761.756)" fill="#FFFFFF"/>
</g>
</mask>
<g id="Fill 31" mask="url(#mask0_outline)">
<use xlink:href="#path15_fill" transform="translate(737 761.756)" fill="#FEFEFE"/>
</g>
</g>
</g>
</g>
<defs>
<path id="path0_fill" fill-rule="evenodd" d="M 0.938331 0C 0.677474 0 0.455934 0.117197 0.273712 0.351591C 0.0914892 0.585228 0 0.881623 0 1.23926C 0 1.61127 0.0960259 1.91371 0.288078 2.14735C 0.480885 2.38023 0.716035 2.49743 0.99504 2.49743C 1.2559 2.49743 1.47744 2.37948 1.66042 2.14433C 1.84264 1.90918 1.93337 1.61429 1.93337 1.25817C 1.93337 0.884648 1.83735 0.581448 1.64681 0.348566C 1.45551 0.116441 1.21885 0 0.938331 0"/>
<path id="path1_fill" fill-rule="evenodd" d="M 0.31681 0C 0.239687 0 0.134587 0.0083172 0 0.0234394C 0.0173905 0.381835 0.0272199 0.755353 0.0272199 1.14551C 0.0272199 1.57271 0.0362932 1.99688 0.0536838 2.41577C 0.170125 2.43996 0.286565 2.45131 0.40225 2.45131C 0.78711 2.45131 1.07216 2.33184 1.25665 2.09367C 1.4419 1.85474 1.53415 1.56288 1.53415 1.2196C 1.53415 0.876331 1.43434 0.587497 1.23397 0.352347C 1.0336 0.117197 0.728133 0 0.31681 0"/>
<path id="path2_fill" fill-rule="evenodd" d="M 0.40225 0C 0.275224 0 0.141392 0.01361 0 0.0408299C 0.0196588 0.378055 0.0294883 0.760646 0.0294883 1.18785C 0.0740987 1.19163 0.12627 1.1939 0.185247 1.1939C 0.837769 1.1939 1.16441 0.987479 1.16441 0.573887C 1.16441 0.191296 0.910355 0 0.40225 0"/>
<path id="path3_fill" fill-rule="evenodd" d="M 0.474837 0C 0.474837 0.069562 0.31681 0.568594 0 1.49634L 0.976893 1.49634C 0.670669 0.573887 0.517935 0.0756109 0.517935 0L 0.474837 0Z"/>
<path id="path4_fill" fill-rule="evenodd" d="M 0.474837 0C 0.474837 0.069562 0.31681 0.568594 0 1.49634L 0.976137 1.49634C 0.670669 0.573887 0.517935 0.0756109 0.517935 0L 0.474837 0Z"/>
<path id="path5_fill" fill-rule="evenodd" d="M 0.445348 0C 0.277492 0 0.129295 0.0128539 0 0.0378055C 0.0204149 0.314541 0.0294883 0.675962 0.0294883 1.12055C 0.127782 1.12433 0.210954 1.12585 0.279004 1.12585C 0.847598 1.12585 1.1319 0.929258 1.1319 0.533057C 1.1319 0.177686 0.902794 0 0.445348 0"/>
<path id="path6_fill" fill-rule="evenodd" d="M 0.31681 0C 0.239687 0 0.134587 0.0083172 0 0.0234394C 0.0173905 0.381835 0.0264638 0.755353 0.0264638 1.14551C 0.0264638 1.57271 0.0362932 1.99688 0.0536838 2.41577C 0.170125 2.43996 0.286565 2.45131 0.40225 2.45131C 0.78711 2.45131 1.07141 2.33184 1.25665 2.09367C 1.4419 1.85474 1.53415 1.56288 1.53415 1.2196C 1.53415 0.876331 1.43434 0.587497 1.23397 0.352347C 1.0336 0.117197 0.728133 0 0.31681 0"/>
<path id="path7_fill" fill-rule="evenodd" d="M 0.939088 0C 0.677474 0 0.455934 0.117197 0.273712 0.351591C 0.0914892 0.585228 0 0.881623 0 1.23926C 0 1.61127 0.096782 1.91371 0.288834 2.14735C 0.480885 2.38023 0.716035 2.49743 0.99504 2.49743C 1.25665 2.49743 1.47819 2.37948 1.66042 2.14433C 1.84264 1.90918 1.93337 1.61429 1.93337 1.25817C 1.93337 0.884648 1.8381 0.581448 1.64756 0.348566C 1.45627 0.116441 1.2196 0 0.939088 0"/>
<path id="path8_fill" fill-rule="evenodd" d="M 0.40225 0C 0.275224 0 0.140636 0.01361 0 0.0408299C 0.0196588 0.378055 0.0294883 0.760646 0.0294883 1.18785C 0.0740987 1.19163 0.12627 1.1939 0.185247 1.1939C 0.837769 1.1939 1.16441 0.987479 1.16441 0.573887C 1.16441 0.191296 0.910355 0 0.40225 0"/>
<path id="path9_fill" fill-rule="evenodd" d="M 2.77341 0C 2.02184 0 1.37158 0.27976 0.823403 0.840037C 0.273712 1.40183 0 2.14357 0 3.06829C 0 3.99226 0.273712 4.73476 0.823403 5.29503C 1.37158 5.85531 2.02184 6.13583 2.77341 6.13583C 3.52422 6.13583 4.17448 5.85531 4.72341 5.29503C 5.27235 4.73476 5.54682 3.99226 5.54682 3.06829C 5.54682 2.14357 5.27235 1.40183 4.72341 0.840037C 4.17448 0.27976 3.52422 0 2.77341 0"/>
<path id="path10_fill" fill-rule="evenodd" d="M 2.66907 0L 0 0L 0 4.33326L 2.66907 4.33326C 3.33898 4.33326 3.87657 4.10794 4.28109 3.6573C 4.68561 3.20666 4.88825 2.7099 4.88825 2.16625C 4.88825 1.62337 4.68561 1.1266 4.28109 0.676718C 3.87657 0.225321 3.33898 0 2.66907 0"/>
<path id="path11_fill" fill-rule="evenodd" d="M 0.589009 0.502056C 0.195832 0.837769 0 1.23019 0 1.68159C 0 2.09669 0.178442 2.42635 0.537594 2.66907C 0.894477 2.91178 1.30504 3.03351 1.76778 3.03351C 2.42635 3.03351 3.02444 2.78702 3.56203 2.2963C 4.09962 1.80559 4.36729 1.2249 4.36729 0.554228C 3.91665 0.184491 3.24144 0 2.3394 0C 1.56515 0 0.982186 0.167856 0.589009 0.502056"/>
<path id="path12_fill" fill-rule="evenodd" d="M 2.42635 0C 1.83735 0 1.32622 0.184491 0.892965 0.554228C 0.458958 0.924722 0.161807 1.42149 0 2.04528L 4.92303 2.04528C 4.88825 1.55985 4.66519 1.09787 4.25538 0.658571C 3.84482 0.219272 3.23464 0 2.42635 0"/>
<path id="path13_fill" fill-rule="evenodd" d="M 2.70385 0C 1.96362 0 1.32848 0.27976 0.797695 0.840037C 0.265394 1.40183 0 2.14357 0 3.06829C 0 3.99226 0.265394 4.73476 0.797695 5.29503C 1.32848 5.85531 1.96362 6.13583 2.70385 6.13583C 3.45466 6.13583 4.09358 5.85833 4.61907 5.30411C 5.14532 4.74912 5.40769 4.0036 5.40769 3.06829C 5.40769 2.13147 5.14532 1.3867 4.61907 0.832476C 4.09358 0.276736 3.45466 0 2.70385 0"/>
<path id="path14_fill" fill-rule="evenodd" d="M 0 41.7765L 127.714 41.7765L 127.714 0L 0 0L 0 41.7765Z"/>
<path id="path15_fill" fill-rule="evenodd" d="M 118.602 32.515L 116.955 32.515L 118.931 28.2339L 115.43 20.2773L 117.163 20.2773L 119.694 26.3799L 119.728 26.3799L 122.189 20.2773L 123.922 20.2773L 118.602 32.515ZM 115.134 28.7715L 113.608 28.7715L 113.608 27.5927L 113.54 27.5927C 112.905 28.5628 111.974 29.049 110.749 29.049C 109.848 29.049 109.094 28.7881 108.487 28.2687C 107.88 27.7485 107.577 27.0612 107.577 26.206C 107.577 25.282 107.935 24.5569 108.652 24.0307C 109.368 23.5052 110.252 23.2421 111.304 23.2421C 112.24 23.2421 113.009 23.4152 113.608 23.7623L 113.608 23.5195C 113.608 22.895 113.395 22.3952 112.968 22.0202C 112.54 21.6444 112.015 21.4569 111.391 21.4569C 110.929 21.4569 110.509 21.5673 110.134 21.7865C 109.758 22.0058 109.501 22.306 109.362 22.6871L 107.906 22.0633C 108.102 21.5552 108.49 21.0841 109.068 20.6509C 109.645 20.2169 110.408 20.0006 111.356 20.0006C 112.443 20.0006 113.343 20.3189 114.06 20.9541C 114.776 21.59 115.134 22.4852 115.134 23.6413L 115.134 28.7715ZM 105.048 28.7715L 106.642 28.7715L 106.642 16.3607L 105.048 16.3607L 105.048 28.7715ZM 102.854 22.6962C 102.085 23.3948 101.176 23.7441 100.125 23.7441L 97.4897 23.7441L 97.4897 28.7715L 95.8951 28.7715L 95.8951 16.3607L 100.125 16.3607C 101.176 16.3607 102.085 16.7108 102.854 17.4087C 103.623 18.1088 104.007 18.9897 104.007 20.0528C 104.007 21.1159 103.623 21.9975 102.854 22.6962L 102.854 22.6962ZM 91.1981 24.8193L 84.4899 24.8193C 84.5353 25.6745 84.8219 26.3512 85.3481 26.8472C 85.8736 27.3439 86.4883 27.5927 87.1938 27.5927C 88.3378 27.5927 89.112 27.1073 89.5165 26.1364L 90.9373 26.7262C 90.6605 27.3848 90.2031 27.9367 89.5687 28.3813C 88.9328 28.8259 88.1525 29.049 87.2285 29.049C 85.9462 29.049 84.9028 28.6218 84.0998 27.7659C 83.2968 26.9114 82.8945 25.8302 82.8945 24.5252C 82.8945 23.2882 83.2847 22.2258 84.065 21.3351C 84.8445 20.446 85.8418 20.0006 87.0546 20.0006C 88.3143 20.0006 89.3222 20.4112 90.0791 21.2316C 90.8359 22.0519 91.2148 23.1498 91.2148 24.5252L 91.1981 24.8193ZM 82.766 11.8792L 82.1036 11.8792C 82.1036 11.8059 81.8579 11.4195 81.3664 10.7186C 80.8508 9.97912 80.5582 9.47404 80.4863 9.2026L 80.4432 9.2026C 80.4886 9.59502 80.5105 9.94812 80.5105 10.2649C 80.5105 10.7065 80.5234 11.2448 80.5483 11.8792L 79.8882 11.8792C 79.9147 11.3258 79.9291 10.7163 79.9291 10.0532C 79.9291 9.4007 79.9147 8.84496 79.8882 8.38751L 80.6852 8.38751C 80.6852 8.48203 80.906 8.86084 81.3475 9.52168C 81.8178 10.2249 82.0878 10.7012 82.1573 10.9515L 82.1982 10.9515C 82.1551 10.553 82.1339 10.1946 82.1339 9.87932C 82.1339 9.39389 82.121 8.89713 82.0961 8.38751L 82.766 8.38751C 82.741 8.83135 82.7289 9.38633 82.7289 10.0532C 82.7289 10.7254 82.741 11.3341 82.766 11.8792L 82.766 11.8792ZM 80.3654 28.7715L 81.9592 28.7715L 81.9592 16.3607L 80.3654 16.3607L 80.3654 28.7715ZM 78.6263 11.4347C 78.2906 11.7961 77.8747 11.976 77.3787 11.976C 76.9069 11.976 76.5114 11.8105 76.1931 11.4785C 75.8748 11.1466 75.716 10.7254 75.716 10.2143C 75.716 9.66461 75.8839 9.21019 76.2203 8.84877C 76.5568 8.48811 76.9719 8.30664 77.4679 8.30664C 77.9397 8.30664 78.3352 8.47223 78.6527 8.8034C 78.9718 9.13382 79.1306 9.55649 79.1306 10.0691C 79.1306 10.6181 78.9627 11.0732 78.6263 11.4347L 78.6263 11.4347ZM 78.8576 28.3382C 78.8576 29.7937 78.435 30.8999 77.5919 31.6575C 76.7481 32.4137 75.7198 32.7925 74.507 32.7925C 73.5014 32.7925 72.681 32.5414 72.0451 32.0386C 71.4092 31.5358 70.9525 30.9604 70.6758 30.3139L 72.1321 29.7075C 72.2939 30.1688 72.591 30.5566 73.025 30.8682C 73.4575 31.1804 73.9513 31.3362 74.507 31.3362C 75.3848 31.3362 76.0752 31.0738 76.578 30.5476C 77.0808 30.0221 77.3318 29.3091 77.3318 28.407L 77.3318 27.5927L 77.2623 27.5927C 76.9848 28.0086 76.5916 28.3556 76.0842 28.6324C 75.5754 28.9098 75.003 29.049 74.3679 29.049C 73.27 29.049 72.3226 28.6157 71.5249 27.7485C 70.728 26.882 70.3287 25.8075 70.3287 24.5252C 70.3287 23.2421 70.728 22.1669 71.5249 21.3004C 72.3226 20.4339 73.27 20.0006 74.3679 20.0006C 75.003 20.0006 75.5754 20.1397 76.0842 20.4165C 76.5916 20.694 76.9848 21.0403 77.2623 21.4569L 77.3318 21.4569L 77.3318 20.2773L 78.8576 20.2773L 78.8576 28.3382ZM 69.0093 10.5546C 68.9254 10.5546 68.8664 10.553 68.8301 10.5493C 68.8301 10.8857 68.84 11.3288 68.8596 11.8793L 68.1058 11.8793C 68.1292 11.3628 68.1406 10.7542 68.1406 10.0533C 68.1406 9.40905 68.1292 8.85406 68.1058 8.38755L 68.5723 8.38755C 68.6388 8.38755 68.7659 8.38452 68.9534 8.37923C 69.1409 8.37394 69.3042 8.37091 69.4411 8.37091C 69.7813 8.37091 70.0686 8.44803 70.3023 8.60152C 70.5374 8.75577 70.6539 8.98941 70.6539 9.30244C 70.6539 9.72964 70.4951 10.0449 70.1775 10.2491C 69.8607 10.4525 69.4706 10.5546 69.0093 10.5546L 69.0093 10.5546ZM 68.5609 27.7575C 67.7398 28.6187 66.6948 29.049 65.4238 29.049C 64.1521 29.049 63.1064 28.6187 62.2867 27.7575C 61.4664 26.8963 61.0558 25.8196 61.0558 24.5252C 61.0558 23.2307 61.4664 22.1533 62.2867 21.292C 63.1064 20.4316 64.1521 20.0006 65.4238 20.0006C 66.6948 20.0006 67.7398 20.4316 68.5609 21.292C 69.3813 22.1533 69.7911 23.2307 69.7911 24.5252C 69.7911 25.8196 69.3813 26.8963 68.5609 27.7575L 68.5609 27.7575ZM 59.288 27.7575C 58.4669 28.6187 57.4212 29.049 56.1501 29.049C 54.8791 29.049 53.8334 28.6187 53.0131 27.7575C 52.1927 26.8963 51.7821 25.8196 51.7821 24.5252C 51.7821 23.2307 52.1927 22.1533 53.0131 21.292C 53.8334 20.4316 54.8791 20.0006 56.1501 20.0006C 57.4212 20.0006 58.4669 20.4316 59.288 21.292C 60.1084 22.1533 60.5182 23.2307 60.5182 24.5252C 60.5182 25.8196 60.1084 26.8963 59.288 27.7575L 59.288 27.7575ZM 51.0124 10.4873C 51.0124 10.9477 51.0207 11.4112 51.0374 11.8793L 50.2911 11.8793C 50.3145 11.3394 50.3259 10.7307 50.3259 10.0533C 50.3259 9.40224 50.3145 8.8465 50.2911 8.38755L 50.7553 8.38755C 50.809 8.38755 50.9209 8.38452 51.0918 8.37923C 51.2619 8.37394 51.4199 8.37091 51.5651 8.37091C 52.3863 8.37091 52.7968 8.65143 52.7968 9.21397C 52.7968 9.65856 52.5617 9.96933 52.0936 10.144L 52.0936 10.1848C 52.2736 10.2347 52.4324 10.3754 52.5685 10.6067C 52.7046 10.8389 52.8876 11.263 53.1182 11.8793L 52.3243 11.8793C 52.1163 11.2464 51.9575 10.8555 51.8471 10.7073C 51.7352 10.5591 51.5568 10.485 51.3103 10.485C 51.2067 10.485 51.1069 10.4857 51.0124 10.4873L 51.0124 10.4873ZM 49.5811 27.2109C 48.4137 28.4358 46.8939 29.049 45.0225 29.049C 43.2305 29.049 41.7085 28.4282 40.4548 27.1852C 39.2005 25.9436 38.5744 24.4027 38.5744 22.5661C 38.5744 20.7288 39.2005 19.1893 40.4548 17.9463C 41.7085 16.7047 43.2305 16.084 45.0225 16.084C 45.9117 16.084 46.7608 16.2564 47.5706 16.6034C 48.3789 16.9497 49.0261 17.4125 49.5115 17.9901L 48.4197 19.082C 47.5993 18.1005 46.4667 17.6083 45.0225 17.6083C 43.7159 17.6083 42.5871 18.068 41.6336 18.9867C 40.6802 19.9054 40.2031 21.0985 40.2031 22.5661C 40.2031 24.0337 40.6802 25.2261 41.6336 26.1455C 42.5871 27.0642 43.7159 27.5232 45.0225 27.5232C 46.4092 27.5232 47.5645 27.0612 48.4885 26.1365C 49.0896 25.5361 49.4359 24.6976 49.5282 23.6231L 45.0225 23.6231L 45.0225 22.1329L 51.0373 22.1329C 51.0948 22.4565 51.1235 22.768 51.1235 23.0689C 51.1235 24.8019 50.6094 26.1833 49.5811 27.2109L 49.5811 27.2109ZM 33.5342 23.4606C 33.2983 23.6352 33.0382 23.7781 32.7803 23.921C 31.2515 24.7664 29.7166 25.6034 28.1915 26.4548C 27.9851 26.5704 27.8626 26.5651 27.6925 26.3882C 26.606 25.2661 25.5096 24.1532 24.408 23.047C 24.2469 22.8859 24.2431 22.7967 24.4072 22.6356C 25.6911 21.3707 26.9689 20.0981 28.2399 18.8211C 28.3896 18.6691 28.497 18.6525 28.6837 18.7591C 30.1945 19.6142 31.7127 20.4596 33.228 21.3079C 33.696 21.5703 34.0604 21.9105 34.0809 22.4655C 34.0635 22.9124 33.8533 23.2262 33.5342 23.4606L 33.5342 23.4606ZM 26.9417 27.1413C 21.8833 29.9102 16.8287 32.6873 11.7734 35.4615C 11.6902 35.5076 11.6123 35.5832 11.5692 35.6112C 15.5101 31.6273 19.4532 27.6479 23.3842 23.6549C 23.6292 23.4069 23.7426 23.4401 23.9611 23.6685C 24.9592 24.7081 25.9731 25.7334 26.9916 26.7549C 27.17 26.9341 27.1851 27.0075 26.9417 27.1413L 26.9417 27.1413ZM 9.45588 35.7519C 9.00297 35.4033 8.82831 34.9353 8.82831 34.3788C 8.82906 32.0303 8.82528 29.6826 8.82452 27.3349C 8.82301 25.6752 8.82452 24.0155 8.82452 22.3551L 8.83057 22.3551C 8.83057 18.3908 8.83133 14.4273 8.82831 10.463C 8.82755 9.9761 8.92282 9.53226 9.26685 9.16479C 9.40144 9.02264 9.49746 8.98408 9.66229 9.15194C 12.3291 11.8732 15.0027 14.5884 17.6763 17.3043C 19.4078 19.063 21.1378 20.8232 22.8753 22.5751C 23.0439 22.7445 23.059 22.8337 22.8798 23.0114C 18.629 27.2381 14.3819 31.4693 10.1454 35.7118C 9.88686 35.9704 9.70464 35.9432 9.45588 35.7519L 9.45588 35.7519ZM 11.1269 8.92739C 16.5566 11.9692 21.9847 15.0133 27.4173 18.0483C 27.6668 18.1882 27.6623 18.2661 27.4695 18.4551C 26.2544 19.6498 25.0499 20.8543 23.8462 22.0603C 23.7169 22.1903 23.6368 22.2644 23.4629 22.0875C 19.144 17.6824 14.8175 13.2833 10.4941 8.88354C 10.4578 8.84649 10.4283 8.80339 10.3542 8.71266C 10.6786 8.70963 10.9069 8.80415 11.1269 8.92739L 11.1269 8.92739ZM 39.413 10.1629C 39.8296 9.08843 40.039 8.49639 40.039 8.38751L 41.053 8.38751C 41.053 8.48959 41.242 9.07255 41.6201 10.1371C 41.9981 11.2025 42.1871 11.7832 42.1871 11.8792L 41.329 11.8792C 41.329 11.762 41.2473 11.4271 41.0847 10.8766L 39.8455 10.8766C 39.6776 11.4188 39.5937 11.753 39.5937 11.8792L 38.7854 11.8792C 38.7854 11.8097 38.9948 11.2373 39.413 10.1629L 39.413 10.1629ZM 42.7678 8.38751L 43.5648 8.38751C 43.5648 8.48203 43.7855 8.86084 44.2271 9.52168C 44.6974 10.2249 44.9666 10.7012 45.0369 10.9515L 45.077 10.9515C 45.0339 10.553 45.0127 10.1946 45.0127 9.87932C 45.0127 9.39389 44.9999 8.89713 44.9749 8.38751L 45.6463 8.38751C 45.6214 8.83135 45.6085 9.38633 45.6085 10.0532C 45.6085 10.7254 45.6214 11.3341 45.6463 11.8792L 44.9832 11.8792C 44.9832 11.8059 44.7375 11.4195 44.2453 10.7186C 43.7311 9.97912 43.4377 9.47404 43.3659 9.2026L 43.3228 9.2026C 43.3674 9.59502 43.3901 9.94812 43.3901 10.2649C 43.3901 10.7065 43.4022 11.2448 43.4271 11.8792L 42.7678 11.8792C 42.7943 11.3258 42.8079 10.7163 42.8079 10.0532C 42.8079 9.4007 42.7943 8.84496 42.7678 8.38751L 42.7678 8.38751ZM 46.5831 8.38755L 47.0527 8.38755C 47.1298 8.38755 47.244 8.38452 47.3959 8.37923C 47.5472 8.37394 47.647 8.37091 47.6939 8.37091C 48.3388 8.37091 48.8068 8.53196 49.0972 8.85406C 49.3883 9.17617 49.5335 9.56254 49.5335 10.0124C 49.5335 10.5205 49.3701 10.9644 49.0458 11.3432C 48.7199 11.722 48.264 11.9118 47.6772 11.9118C 47.4126 11.9118 47.0474 11.9012 46.5831 11.8793C 46.6058 11.3394 46.6179 10.7307 46.6179 10.0533C 46.6179 9.40224 46.6058 8.8465 46.5831 8.38755L 46.5831 8.38755ZM 54.0527 8.84877C 54.3892 8.48811 54.8051 8.30664 55.2995 8.30664C 55.7721 8.30664 56.1676 8.47223 56.4859 8.8034C 56.8042 9.13382 56.963 9.55649 56.963 10.0691C 56.963 10.6181 56.7951 11.0732 56.4587 11.4347C 56.1222 11.7961 55.7063 11.976 55.2118 11.976C 54.7393 11.976 54.3446 11.8105 54.0263 11.4785C 53.7079 11.1466 53.5484 10.7254 53.5484 10.2143C 53.5484 9.66461 53.717 9.21019 54.0527 8.84877L 54.0527 8.84877ZM 57.7206 8.38751L 58.4798 8.38751C 58.4563 8.83815 58.4442 9.39314 58.4442 10.0532C 58.4442 10.7277 58.4563 11.3356 58.4798 11.8792L 57.7206 11.8792C 57.7441 11.3258 57.7554 10.7163 57.7554 10.0532C 57.7554 9.4007 57.7441 8.84496 57.7206 8.38751L 57.7206 8.38751ZM 59.4174 8.38755L 59.8869 8.38755C 59.9633 8.38755 60.0782 8.38452 60.2302 8.37923C 60.3814 8.37394 60.4812 8.37091 60.5273 8.37091C 61.173 8.37091 61.6411 8.53196 61.9322 8.85406C 62.2225 9.17617 62.3677 9.56254 62.3677 10.0124C 62.3677 10.5205 62.2044 10.9644 61.8792 11.3432C 61.5541 11.722 61.0974 11.9118 60.5114 11.9118C 60.2468 11.9118 59.8824 11.9012 59.4174 11.8793C 59.44 11.3394 59.4521 10.7307 59.4521 10.0533C 59.4521 9.40224 59.44 8.8465 59.4174 8.38755L 59.4174 8.38755ZM 64.7501 10.1629C 65.1675 9.08843 65.3762 8.49639 65.3762 8.38751L 66.3901 8.38751C 66.3901 8.48959 66.5792 9.07255 66.9572 10.1371C 67.336 11.2025 67.5251 11.7832 67.5251 11.8792L 66.6661 11.8792C 66.6661 11.762 66.5852 11.4271 66.4219 10.8766L 65.1834 10.8766C 65.0155 11.4188 64.9316 11.753 64.9316 11.8792L 64.1241 11.8792C 64.1241 11.8097 64.3328 11.2373 64.7501 10.1629L 64.7501 10.1629ZM 71.323 8.38755L 71.7895 8.38755C 71.8561 8.38755 71.9831 8.38452 72.1706 8.37923C 72.3581 8.37394 72.5207 8.37091 72.6583 8.37091C 72.9985 8.37091 73.2851 8.44803 73.5195 8.60152C 73.7539 8.75577 73.8711 8.98941 73.8711 9.30244C 73.8711 9.72964 73.7123 10.0449 73.3947 10.2491C 73.0772 10.4525 72.6878 10.5546 72.2265 10.5546C 72.1426 10.5546 72.0829 10.553 72.0474 10.5493C 72.0474 10.8857 72.0564 11.3288 72.0768 11.8793L 71.323 11.8793C 71.3457 11.3628 71.3578 10.7542 71.3578 10.0533C 71.3578 9.40905 71.3457 8.85406 71.323 8.38755L 71.323 8.38755ZM 122.069 0L 5.64587 0C 2.52767 0 0 2.52843 0 5.64587L 0 36.1307C 0 39.2489 2.52767 41.7773 5.64587 41.7773L 122.069 41.7773C 125.187 41.7773 127.714 39.2489 127.714 36.1307L 127.714 5.64587C 127.714 2.52843 125.187 0 122.069 0L 122.069 0Z"/>
</defs>
</svg>
