<svg width="120" height="38" viewBox="0 0 120 38" version="1.1" xmlns="http://www.w3.org/2000/svg" xmlns:xlink="http://www.w3.org/1999/xlink">
<title>Page 1 Copy 4</title>
<desc>Created using Figma</desc>
<g id="Canvas" transform="translate(-2156 -511)">
<g id="Page 1 Copy 4">
<g id="Group 3">
<mask id="mask0_outline" mask-type="alpha">
<g id="Clip 2">
<use xlink:href="#path0_fill" transform="translate(2173.51 512.115)" fill="#FFFFFF"/>
</g>
</mask>
<g id="Fill 1" mask="url(#mask0_outline)">
<use xlink:href="#path1_fill" transform="translate(2173.51 512.115)" fill="#FFFFFF"/>
</g>
</g>
<g id="Group 6">
<mask id="mask1_outline" mask-type="alpha">
<g id="Clip 5">
<use xlink:href="#path2_fill" transform="translate(2201.68 511.995)" fill="#FFFFFF"/>
</g>
</mask>
<g id="Fill 4" mask="url(#mask1_outline)">
<use xlink:href="#path3_fill" transform="translate(2201.68 511.995)" fill="#FFFFFF"/>
</g>
</g>
<g id="Group 9">
<mask id="mask2_outline" mask-type="alpha">
<g id="Clip 8">
<use xlink:href="#path4_fill" transform="translate(2269.91 541.922)" fill="#FFFFFF"/>
</g>
</mask>
<g id="Fill 7" mask="url(#mask2_outline)">
<use xlink:href="#path5_fill" transform="translate(2269.91 541.922)" fill="#FFFFFF"/>
</g>
</g>
<g id="Fill 10">
<use xlink:href="#path6_fill" transform="translate(2271.67 543.262)" fill="#FFFFFF"/>
</g>
<g id="Group 14">
<mask id="mask3_outline" mask-type="alpha">
<g id="Clip 13">
<use xlink:href="#path7_fill" transform="translate(2239.46 511.995)" fill="#FFFFFF"/>
</g>
</mask>
<g id="Fill 12" mask="url(#mask3_outline)">
<use xlink:href="#path8_fill" transform="translate(2239.46 511.995)" fill="#FFFFFF"/>
</g>
</g>
<g id="Group 17">
<mask id="mask4_outline" mask-type="alpha">
<g id="Clip 16">
<use xlink:href="#path9_fill" transform="translate(2156 511.995)" fill="#FFFFFF"/>
</g>
</mask>
<g id="Fill 15" mask="url(#mask4_outline)">
<use xlink:href="#path10_fill" transform="translate(2156 511.995)" fill="#FFFFFF"/>
</g>
</g>
</g>
</g>
<defs>
<path id="path0_fill" fill-rule="evenodd" d="M 0 36.3446L 37.7011 36.3446L 37.7011 0L 0 0L 0 36.3446Z"/>
<path id="path1_fill" fill-rule="evenodd" d="M 18.4038 0C 14.4341 0 12.981 3.74974 12.981 3.74974L 2.738 27.7288C 2.68078 27.863 1.16155 31.5203 0.12867 34.0281C -0.326113 35.1328 0.480856 36.345 1.66665 36.345L 10.1477 36.345C 14.7291 36.345 19.2503 33.0397 23.5692 27.9655L 21.6564 23.3447C 17.2842 29.0374 13.4358 31.927 10.1477 31.927L 7.17436 31.927C 6.49859 31.927 6.03789 31.2349 6.2934 30.6035C 6.77679 29.4063 7.14377 28.5004 7.14377 28.5004L 16.9941 5.50082C 16.9941 5.50082 17.3601 4.38713 18.4038 4.38713C 19.4486 4.38713 19.8146 5.50082 19.8146 5.50082L 32.9826 36.2266L 37.7011 36.2266L 23.7873 3.74974C 23.7873 3.74974 22.3746 0 18.4038 0"/>
<path id="path2_fill" fill-rule="evenodd" d="M 1.40192e-14 36.4649L 37.7823 36.4649L 37.7823 0L 0 0L 0 36.4649L 1.40192e-14 36.4649Z"/>
<path id="path3_fill" fill-rule="evenodd" d="M 36.1153 0.120318L 27.6333 0.120318C 23.0529 0.120318 18.5317 3.42459 14.2127 8.49882L 16.1256 13.1206C 20.4968 7.42789 24.3452 4.53728 27.6333 4.53728L 30.6076 4.53728C 31.2843 4.53728 31.7431 5.23035 31.4895 5.86078C 31.0052 7.05898 30.6382 7.96485 30.6382 7.96485L 20.7878 30.9635C 20.7878 30.9635 20.4218 32.0782 19.3771 32.0782C 18.3344 32.0782 17.9674 30.9635 17.9674 30.9635L 4.67016 0L 0 0L 13.9937 32.7145C 13.9937 32.7145 15.4074 36.4653 19.3771 36.4653C 23.3488 36.4653 24.801 32.7145 24.801 32.7145L 35.043 8.73647C 35.1012 8.60223 36.6194 4.94397 37.6533 2.43619C 38.109 1.33245 37.3011 0.120318 36.1153 0.120318"/>
<path id="path4_fill" fill-rule="evenodd" d="M 5.79439 5.84288L 5.79439 0L 0 1.76634e-15L 0 5.84288L 5.79439 5.84288L 5.79439 5.84288Z"/>
<path id="path5_fill" fill-rule="evenodd" d="M 5.52944 2.92143C 5.52944 4.38115 4.39396 5.59129 2.88854 5.59129C 1.392 5.59129 0.263428 4.39806 0.263428 2.93734L 0.263428 2.92143C 0.263428 1.45971 1.39891 0.249573 2.90433 0.249573C 4.40087 0.249573 5.52944 1.4448 5.52944 2.90552L 5.52944 2.92143ZM 2.9043 0C 1.27951 0 0 1.33145 0 2.92144L 0 2.93735C 0 4.52634 1.26372 5.84288 2.88851 5.84288C 4.51429 5.84288 5.79479 4.51043 5.79479 2.92144L 5.79479 2.90553C 5.79479 1.31554 4.52909 0 2.9043 0L 2.9043 0Z"/>
<path id="path6_fill" fill-rule="evenodd" d="M 1.99272 0.935689C 1.99272 1.27377 1.70465 1.46767 1.28834 1.46767L 0.439941 1.46767L 0.439941 0.40271L 1.31301 0.40271C 1.73622 0.40271 1.99272 0.60556 1.99272 0.918784L 1.99272 0.935689ZM 1.32785 0L 0.21506 0C 0.0956919 0 0 0.0964532 0 0.216771L 0 2.81504C 0 2.93635 0.0956919 3.03281 0.21506 3.03281C 0.336401 3.03281 0.439985 2.93635 0.439985 2.81504L 0.439985 1.86443L 1.20848 1.86443L 2.04899 2.93635C 2.09634 3.00099 2.14468 3.03281 2.23248 3.03281C 2.34494 3.03281 2.44952 2.9453 2.44952 2.822C 2.44952 2.75836 2.42485 2.70964 2.39328 2.66191L 1.68793 1.78289C 2.13679 1.67749 2.44952 1.37819 2.44952 0.911831L 2.44952 0.895921C 2.44952 0.654291 2.35284 0.451441 2.20881 0.314219C 2.01644 0.120318 1.7047 0 1.32785 0L 1.32785 0Z"/>
<path id="path7_fill" fill-rule="evenodd" d="M 0 36.4647L 29.0528 36.4647L 29.0528 0L 0 0L 0 36.4647Z"/>
<path id="path8_fill" fill-rule="evenodd" d="M 24.5691 21.8223C 24.5691 27.4036 20.0646 31.9449 14.5263 31.9449C 8.98904 31.9449 4.48462 27.4036 4.48462 21.8223L 4.48462 14.641C 4.48462 9.05964 8.98904 4.51938 14.5263 4.51938C 20.0646 4.51938 24.5691 9.05964 24.5691 14.641L 24.5691 21.8223ZM 14.5264 0L 14.5264 0C 6.50409 0 0 6.55484 0 14.641L 0 21.8223C 0 29.9094 6.50409 36.4653 14.5264 36.4653C 22.5488 36.4653 29.0528 29.9094 29.0528 21.8223L 29.0528 14.641C 29.0528 6.55484 22.5488 0 14.5264 0L 14.5264 0Z"/>
<path id="path9_fill" fill-rule="evenodd" d="M 0 0L 0 36.347L 15.2275 36.347L 15.2275 7.06537e-15L 4.01093e-20 7.06537e-15L 0 0Z"/>
<path id="path10_fill" fill-rule="evenodd" d="M 4.57743 0L 0.0986514 0C 0.0443931 0 0 0.0447463 0 0.0994363L 0 32.109L 0 36.347L 4.57743 36.347L 10.5488 36.347C 12.2574 36.347 13.8063 35.3317 14.5008 33.7576L 15.2278 32.109L 4.57743 32.109L 4.57743 0Z"/>
</defs>
</svg>
